# xmcd
#
# Track frame offsets:
#	150
#	12909
#	29188
#	42737
#	51818
#	66216
#	81006
#	98441
#	106787
#	115881
#	121416
#	129409
#	141670
#	154439
#	165366
#	182341
#	194394
#	204825
#
# Disc length: 2973 seconds
#
# Revision: 1
# Processed by: cddbd v1.5.2PL0 Copyright (c) Steve Scherf et al.
# Submitted via: audiograbber 1.83.01
#
DISCID=f60b9b12
DTITLE=Johnny Cash - I Walk The Line (Live Performances)
DYEAR=1900
DGENRE=Country
TTITLE0=Ring Of Fire
TTITLE1=A Boy Named Sue
TTITLE2=I Walk The Line
TTITLE3=Big River
TTITLE4=I Got A Woman
TTITLE5=Goodbye Little Darlin' Goodbye
TTITLE6=Ballad Of Ira Hayes
TTITLE7=Get Rhythm
TTITLE8=Luther Played The Boogie
TTITLE9=Cry Cry Cry
TTITLE10=I Got Stripes
TTITLE11=Folsom Prison Blues
TTITLE12=Peace In The Valley
TTITLE13=Rock Island Line
TTITLE14=Sunday Morning Coming Down
TTITLE15=Sixteen Tons
TTITLE16=If I Were A Carpenter
TTITLE17=Orange Blossom Special
EXTD=Live Performances
EXTT0=
EXTT1=
EXTT2=
EXTT3=
EXTT4=
EXTT5=
EXTT6=
EXTT7=
EXTT8=
EXTT9=
EXTT10=
EXTT11=
EXTT12=
EXTT13=
EXTT14=
EXTT15=
EXTT16=
EXTT17=
PLAYORDER=
